<?xml version="1.0" standalone="no"?>
<!DOCTYPE svg PUBLIC "-//W3C//DTD SVG 20010904//EN"
 "http://www.w3.org/TR/2001/REC-SVG-20010904/DTD/svg10.dtd">
<svg version="1.0" xmlns="http://www.w3.org/2000/svg"
 width="172.000000pt" height="56.000000pt" viewBox="0 0 172.000000 56.000000"
 preserveAspectRatio="xMidYMid meet">
<metadata>
Created by potrace 1.10, written by Peter Selinger 2001-2011
</metadata>
<g transform="translate(0.000000,56.000000) scale(0.100000,-0.100000)"
fill="#000000" stroke="none">
<path d="M120 467 c0 -5 9 -11 20 -14 19 -5 20 -14 20 -168 0 -155 -1 -164
-20 -170 -40 -13 -19 -23 48 -23 66 0 67 0 45 18 -20 16 -23 28 -23 92 l0 73
102 -2 103 -1 3 -74 c3 -70 2 -74 -25 -90 -28 -17 -28 -17 40 -16 64 0 85 9
52 22 -12 4 -15 33 -15 170 0 158 1 165 21 171 33 11 15 17 -50 19 -64 1 -75
-6 -41 -24 18 -10 21 -19 18 -81 l-3 -71 -103 -1 -102 -2 0 77 c0 69 2 77 21
83 11 4 18 9 15 12 -9 9 -126 8 -126 0z"/>
<path d="M540 468 c0 -4 9 -13 21 -21 18 -13 20 -24 19 -128 -1 -63 -1 -123
-1 -135 1 -11 14 -35 31 -54 25 -28 38 -34 85 -38 68 -6 124 16 148 58 14 22
17 55 17 159 0 120 2 132 20 143 30 19 25 23 -30 23 -51 0 -67 -12 -29 -22 20
-6 21 -11 17 -137 -4 -142 -12 -167 -60 -187 -34 -14 -105 -6 -125 13 -22 23
-32 83 -33 195 0 101 0 102 28 117 15 8 25 16 22 16 -26 5 -130 3 -130 -2z"/>
<path d="M990 462 c-42 -21 -62 -57 -54 -97 8 -38 35 -64 101 -94 61 -28 79
-45 88 -83 5 -21 1 -33 -19 -52 -45 -46 -116 -29 -164 37 l-23 32 7 -50 c3
-27 8 -52 10 -54 10 -11 137 -12 164 -1 66 27 93 113 50 156 -30 30 -50 45
-50 39 0 -4 -7 1 -16 9 -8 9 -20 14 -25 11 -5 -4 -9 -1 -9 5 0 6 -4 8 -10 5
-5 -3 -10 -1 -10 5 0 6 -4 9 -9 6 -11 -7 -37 22 -45 51 -9 28 32 73 66 73 28
0 86 -34 94 -55 11 -28 20 -15 16 24 -3 34 -8 40 -34 45 -52 10 -92 7 -128
-12z"/>
<path d="M1210 468 c0 -4 9 -12 20 -18 19 -10 20 -21 20 -170 0 -150 -1 -159
-20 -165 -40 -13 -19 -23 48 -23 66 0 67 0 45 18 -20 16 -23 27 -23 94 l0 77
103 -3 102 -3 3 -75 c3 -73 2 -76 -25 -92 -28 -17 -28 -17 40 -16 71 0 80 5
47 26 -19 11 -20 23 -20 167 l0 154 28 15 c15 8 25 16 22 16 -27 5 -130 3
-130 -2 0 -4 9 -12 20 -18 18 -10 21 -19 18 -81 l-3 -71 -103 -1 -102 -2 0 77
c0 69 2 77 21 83 11 4 18 9 15 12 -8 8 -126 9 -126 1z"/>
</g>
</svg>
